<?xml version="1.0" encoding="utf-8"?>
<svg width="42" height="42" viewBox="0 0 42 42" fill="none" xmlns="http://www.w3.org/2000/svg">
  <path opacity="0.15" fill-rule="evenodd" clip-rule="evenodd" d="M40.6377 19.814C40.4183 19.7228 40.1658 19.7732 39.9978 19.9416L38.2394 21.7057V9.71161C38.2394 9.38628 37.9766 9.12261 37.6523 9.12261H33.1413L34.7788 7.47985L34.7795 7.47906L36.3573 5.89617C36.6954 5.55704 36.8816 5.10591 36.8816 4.62624C36.8816 4.14658 36.6954 3.6956 36.3573 3.35631L34.5328 1.52591C34.1948 1.18677 33.7451 1 33.2669 1C32.7888 1 32.3392 1.18677 32.0011 1.52591L30.4225 3.10958L28.515 5.02322L24.4288 9.12254H6.2047V3.29564C6.2047 2.9703 5.94181 2.70665 5.61759 2.70665C3.07149 2.70681 1 4.7848 1 7.33924V32.3559C1 32.3994 1.005 32.4417 1.01391 32.4825C1.095 33.5664 1.56242 34.5734 2.3436 35.3379C3.1786 36.1549 4.28087 36.6048 5.44743 36.6048H23.3879L20.0091 39.9946C19.8412 40.163 19.791 40.4162 19.8818 40.6364C19.9727 40.8565 20.1868 41 20.4243 41H40.413C40.7372 41 41.0001 40.7364 41.0001 40.411V20.3582C41.0001 20.12 40.857 19.9052 40.6377 19.814ZM32.8315 2.35897C33.0715 2.11804 33.4626 2.11804 33.7026 2.35897L35.5272 4.18945C35.7673 4.4303 35.7673 4.82242 35.5272 5.06335L34.3638 6.23053L31.668 3.52615L32.8315 2.35897ZM30.8377 4.35913L33.5334 7.06343L32.4562 8.14417L29.7606 5.43987L30.8377 4.35913ZM18.3967 21.76L16.715 22.3556L15.5945 21.2315L16.1882 19.5444L18.3967 21.76ZM35.8293 30.1707L30.1707 35.8293C30.1077 35.8923 30.1523 36 30.2414 36H36V30.2414C36 30.1523 35.8923 30.1077 35.8293 30.1707ZM16 18.5L19.5 22L32.5 9L29 5.5L16 18.5Z" style="fill: rgb(31, 183, 163); paint-order: stroke;"/>
  <path d="M 36.4 29.255 C 36.18 29.164 35.928 29.214 35.76 29.383 L 29.344 35.819 C 29.176 35.988 29.126 36.241 29.217 36.461 C 29.308 36.681 29.522 36.825 29.759 36.825 L 36.175 36.825 C 36.5 36.825 36.762 36.561 36.762 36.236 L 36.762 33.42 L 36.762 29.799 C 36.762 29.561 36.619 29.346 36.4 29.255 Z M 31.176 35.647 L 35.588 31.221 L 35.588 32.051 L 35.588 34.074 L 35.588 35.647 L 31.176 35.647 Z" stroke="url(#paint2_linear)" stroke-width="0.25" style="fill: rgb(31, 183, 163); paint-order: stroke markers;"/>
  <path d="M 40.638 19.814 C 40.418 19.723 40.166 19.773 39.998 19.942 L 38.239 21.706 L 38.239 15.709 L 38.239 9.712 C 38.239 9.386 37.977 9.123 37.652 9.123 L 33.141 9.123 L 34.779 7.48 C 34.779 7.48 34.779 7.479 34.78 7.479 L 36.357 5.896 C 36.695 5.557 36.882 5.106 36.882 4.626 C 36.882 4.147 36.695 3.696 36.357 3.356 L 34.533 1.526 C 34.195 1.187 33.745 1 33.267 1 C 32.789 1 32.339 1.187 32.001 1.526 L 30.423 3.11 L 29.826 3.708 L 28.515 5.023 L 24.429 9.123 L 6.205 9.123 L 6.205 3.296 C 6.205 2.97 5.942 2.707 5.618 2.707 C 3.071 2.707 1 4.785 1 7.339 L 1 32.356 C 1 32.399 1.005 32.442 1.014 32.483 C 1.095 33.566 1.562 34.573 2.344 35.338 C 3.179 36.155 4.281 36.605 5.447 36.605 L 23.388 36.605 L 20.009 39.995 C 19.841 40.163 19.791 40.416 19.882 40.636 C 19.973 40.857 20.187 41 20.424 41 L 40.413 41 C 40.737 41 41 40.736 41 40.411 L 41 20.358 C 41 20.12 40.857 19.905 40.638 19.814 Z M 32.832 2.359 C 33.072 2.118 33.463 2.118 33.703 2.359 L 35.527 4.189 C 35.767 4.43 35.767 4.822 35.527 5.063 L 34.364 6.231 L 31.668 3.526 L 32.832 2.359 Z M 30.838 4.359 L 33.533 7.063 L 32.456 8.144 L 29.761 5.44 L 30.838 4.359 Z M 39.826 26.976 L 38.743 26.976 C 38.419 26.976 38.156 27.24 38.156 27.565 C 38.156 27.891 38.419 28.154 38.743 28.154 L 39.826 28.154 L 39.826 29.929 L 38.743 29.929 C 38.419 29.929 38.156 30.193 38.156 30.518 C 38.156 30.844 38.419 31.107 38.743 31.107 L 39.826 31.107 L 39.826 32.882 L 38.743 32.882 C 38.419 32.882 38.156 33.146 38.156 33.471 C 38.156 33.797 38.419 34.06 38.743 34.06 L 39.826 34.06 L 39.826 35.835 L 38.743 35.835 C 38.419 35.835 38.156 36.099 38.156 36.424 C 38.156 36.75 38.419 37.013 38.743 37.013 L 39.826 37.013 L 39.826 39.822 L 21.842 39.822 L 27.772 33.873 C 28.001 33.643 28.001 33.27 27.772 33.04 C 27.746 33.014 27.717 32.991 27.688 32.97 C 27.459 32.813 27.145 32.836 26.942 33.04 L 24.562 35.427 L 5.448 35.427 C 3.667 35.427 2.233 34.032 2.177 32.249 C 2.18 32.137 2.189 32.026 2.203 31.917 C 2.203 31.916 2.203 31.915 2.203 31.915 C 2.21 31.863 2.218 31.811 2.227 31.759 C 2.228 31.753 2.229 31.747 2.23 31.742 C 2.238 31.696 2.247 31.65 2.257 31.604 C 2.26 31.591 2.263 31.579 2.266 31.566 C 2.275 31.528 2.285 31.489 2.295 31.451 C 2.3 31.43 2.306 31.41 2.312 31.389 C 2.321 31.359 2.33 31.33 2.339 31.3 C 2.349 31.27 2.359 31.241 2.369 31.212 C 2.376 31.192 2.383 31.171 2.391 31.151 C 2.405 31.112 2.42 31.074 2.436 31.036 C 2.44 31.025 2.445 31.014 2.449 31.003 C 2.469 30.956 2.49 30.91 2.512 30.864 C 2.513 30.862 2.514 30.86 2.515 30.858 C 2.974 29.905 3.858 29.194 4.917 28.973 C 4.92 28.973 4.923 28.972 4.926 28.971 C 4.975 28.961 5.024 28.953 5.073 28.945 C 5.082 28.944 5.09 28.942 5.098 28.941 C 5.143 28.934 5.188 28.929 5.233 28.923 C 5.246 28.922 5.258 28.92 5.271 28.919 C 5.314 28.914 5.358 28.912 5.402 28.909 C 5.416 28.908 5.43 28.906 5.444 28.906 C 5.501 28.903 5.559 28.901 5.618 28.901 C 5.942 28.901 6.205 28.638 6.205 28.312 L 6.205 24.042 C 6.205 23.716 5.942 23.453 5.618 23.453 C 5.293 23.453 5.03 23.716 5.03 24.042 L 5.03 27.76 C 4.039 27.886 3.119 28.33 2.393 29.041 C 2.317 29.115 2.245 29.193 2.174 29.272 L 2.174 7.339 C 2.174 5.635 3.41 4.215 5.03 3.935 L 5.03 21.686 C 5.03 22.011 5.293 22.275 5.618 22.275 C 5.942 22.275 6.205 22.011 6.205 21.686 L 6.205 10.301 L 23.255 10.301 L 20.009 13.557 C 19.78 13.787 19.78 14.16 20.009 14.39 C 20.238 14.62 20.61 14.62 20.839 14.39 L 25.087 10.128 C 25.087 10.128 25.087 10.128 25.088 10.128 L 28.93 6.273 L 31.626 8.977 L 31.309 9.294 C 31.309 9.295 31.309 9.295 31.309 9.295 L 19.471 21.172 L 16.775 18.467 L 19.108 16.126 C 19.338 15.896 19.338 15.523 19.108 15.293 C 18.879 15.063 18.507 15.063 18.278 15.293 L 15.529 18.051 C 15.515 18.066 15.501 18.081 15.488 18.097 C 15.484 18.102 15.48 18.108 15.476 18.114 C 15.468 18.125 15.46 18.136 15.452 18.147 C 15.448 18.154 15.444 18.161 15.44 18.168 C 15.433 18.179 15.427 18.19 15.421 18.202 C 15.418 18.209 15.414 18.216 15.411 18.224 C 15.405 18.236 15.401 18.247 15.396 18.259 C 15.395 18.263 15.393 18.267 15.391 18.271 L 14.247 21.522 L 13.467 23.738 C 13.457 23.768 13.45 23.798 13.444 23.828 L 11.492 23.828 C 11.167 23.828 10.905 24.092 10.905 24.417 C 10.905 24.742 11.167 25.006 11.492 25.006 L 27.751 25.006 C 28.075 25.006 28.338 24.742 28.338 24.417 C 28.338 24.092 28.075 23.828 27.751 23.828 L 16.085 23.828 L 19.666 22.56 C 19.669 22.559 19.672 22.557 19.675 22.556 C 19.689 22.551 19.702 22.545 19.716 22.539 C 19.721 22.537 19.727 22.534 19.732 22.532 C 19.746 22.525 19.76 22.517 19.773 22.509 C 19.778 22.506 19.782 22.503 19.786 22.501 C 19.801 22.492 19.814 22.482 19.828 22.471 C 19.831 22.469 19.835 22.466 19.838 22.464 C 19.854 22.45 19.87 22.436 19.886 22.421 L 31.967 10.301 L 37.065 10.301 L 37.065 16.593 L 37.065 22.884 L 32.866 27.097 L 28.667 31.309 C 28.438 31.539 28.438 31.912 28.667 32.142 C 28.681 32.156 28.696 32.17 28.712 32.182 C 28.819 32.27 28.951 32.315 29.082 32.315 C 29.214 32.315 29.345 32.27 29.453 32.182 C 29.468 32.17 29.483 32.156 29.497 32.142 L 29.498 32.142 L 39.826 21.78 L 39.826 26.976 Z M 18.397 21.76 L 16.715 22.356 L 15.595 21.232 L 16.188 19.544 L 18.397 21.76 Z" stroke="url(#paint4_linear)" stroke-width="0.25" style="fill: rgb(31, 183, 163); fill-rule: nonzero; paint-order: stroke;"/>
  <defs>
    <linearGradient id="paint2_linear" x1="29.602" y1="29.21" x2="36.1781" y2="36.4484" gradientUnits="userSpaceOnUse">
      <stop offset="0.2593" stop-color="#FFDB6E"/>
      <stop offset="1" stop-color="#FFBC5E"/>
    </linearGradient>
    <linearGradient id="paint4_linear" x1="3.26667" y1="1" x2="37.8" y2="39.1334" gradientUnits="userSpaceOnUse">
      <stop offset="0.2593" stop-color="#FFDB6E"/>
      <stop offset="1" stop-color="#FFBC5E"/>
    </linearGradient>
  </defs>
</svg>